<svg xmlns="http://www.w3.org/2000/svg" viewBox="0 0 418.51 38.75"><path d="M54.62 9.52 52.8 6.7 28.16 22.17l-4.76-7.59L2.59 27.75 0 23.69 24.87 7.94l4.76 7.58L50.15 2.65 48.39 0 58 .53ZM6.7 38.69h6.12V25.58L6.7 29.46Zm9.76-15.41v15.41h6.06V20.05l-.3-.47Zm9.7 4.41v11.06h6.12V23.81L27 27.11Zm9.76 11H42v-21l-6.12 3.82Zm9.76 0h6.12V11.58l-6.12 3.82Z" fill="#0de2ea"/><path d="M70.67 12.08h16.64v3.55H70.67Zm0 18.7h16.6v3.55h-16.6Zm0-9.44h15v3.5h-15Zm30.15 7.47 2.1-2.8v-.09ZM113 12.08h-4.49l-5.56 8-5.51-8h-4.61l7.8 10.92-8.08 11.33h5Zm.28 22.25-6.17-8.74-2.34 3.13 3.93 5.61Zm21.59-17.85a7.42 7.42 0 0 0-1.68-2.34 8.12 8.12 0 0 0-2.66-1.54 11.86 11.86 0 0 0-3.55-.52h-8.74v3.51h8.41a5.72 5.72 0 0 1 3.5 1 3.47 3.47 0 0 1 1.31 3 3.75 3.75 0 0 1-1.26 2.94 5.53 5.53 0 0 1-3.55 1.08h-8.41v10.7h3.88v-7.13h4.39a12.27 12.27 0 0 0 3.5-.52 8.57 8.57 0 0 0 2.81-1.44 6.64 6.64 0 0 0 1.92-2.39 7.29 7.29 0 0 0 .7-3.27 7.84 7.84 0 0 0-.56-3.08Zm7.58-4.4h16.64v3.55h-16.62Zm0 18.7h16.59v3.55h-16.57Zm0-9.44h15v3.5h-15Zm22.57 13h3.88V22.41l-3.9-5.47v17.39Zm15.52-22.25v15.37l-11-15.38h-4.21l15.8 22.25h3.22V12.08Zm21 0a13.19 13.19 0 0 0-4.76.84 11.4 11.4 0 0 0-3.74 2.34 9.67 9.67 0 0 0-2.43 3.55 11.91 11.91 0 0 0-.85 4v1.41h4.12v-1.45a7.83 7.83 0 0 1 .51-2.57 8.56 8.56 0 0 1 1.61-2.43 8.46 8.46 0 0 1 2.43-1.59 8.85 8.85 0 0 1 3.18-.56h5.89v-3.55Zm1.78 10.52v.89a9.6 9.6 0 0 1-.57 2.75 6.91 6.91 0 0 1-4 4 8.78 8.78 0 0 1-3.18.56h-5.89v3.55h5.89a13.21 13.21 0 0 0 4.77-.84 11.5 11.5 0 0 0 3.74-2.34 10.93 10.93 0 0 0 2.43-3.55 9.94 9.94 0 0 0 .84-4.11v-.92Zm10.89-10.52h16.69v3.55h-16.64Zm0 18.7h16.59v3.55h-16.54Zm0-9.44h15v3.5h-15Zm53.19-5.61h7.06v-3.66h-18v3.65Zm-3.93 3.64h3.93v15h-3.93Zm35.34 15-6-8.41A11.59 11.59 0 0 0 295 25a7.12 7.12 0 0 0 1.68-1.45 5.57 5.57 0 0 0 1.08-1.92 7.12 7.12 0 0 0 .42-2.52 7.53 7.53 0 0 0-.56-2.95A6.25 6.25 0 0 0 296 14a7.5 7.5 0 0 0-2.62-1.4 11.23 11.23 0 0 0-3.46-.52H280v3.55h9.59a5.51 5.51 0 0 1 3.41.94 3.31 3.31 0 0 1 1.21 2.8 3.27 3.27 0 0 1-1.21 2.71 5 5 0 0 1-3.37 1H280v11.25h3.88v-7.76h4.91l5.47 7.76Zm20.89 0h4.3L315.82 12h-4.25l4.72 13.33Zm-17.2 0h4.11l4.86-11.87-2-5.33Zm27.11-15.61a9.63 9.63 0 0 1 2.43-3.51 10.7 10.7 0 0 1 3.74-2.33 13 13 0 0 1 4.81-.89h5.19v3.55h-5.14a7.91 7.91 0 0 0-3.22.61 7 7 0 0 0-4 4 7.73 7.73 0 0 0-.57 3 7.72 7.72 0 0 0 .57 3 7 7 0 0 0 1.58 2.47 7.31 7.31 0 0 0 2.44 1.55 9.15 9.15 0 0 0 3.22.56h5.14v3.55h-5.19a13 13 0 0 1-4.76-.84 12.33 12.33 0 0 1-3.79-2.39 10 10 0 0 1-2.43-3.55 11.44 11.44 0 0 1-.89-4.39 11.11 11.11 0 0 1 .89-4.44Zm41.5 15.56-7.61-9.72-2.67 2.9 5.56 6.82h4.72ZM366 12.08l-10.61 11v-11h-3.84v22.2h3.84v-5.23l15.75-17Zm10.84 0h16.64v3.55h-16.66Zm0 18.7h16.59v3.55h-16.61Zm0-9.44h15v3.5h-15Zm41.69 13-6-8.41a11.59 11.59 0 0 0 2.15-.89 7.18 7.18 0 0 0 1.69-1.45 5.71 5.71 0 0 0 1.07-1.92 7.12 7.12 0 0 0 .42-2.52 7.53 7.53 0 0 0-.56-2.95 6.13 6.13 0 0 0-1.69-2.2 7.36 7.36 0 0 0-2.61-1.4 11.28 11.28 0 0 0-3.46-.52h-9.91v3.55h9.58a5.49 5.49 0 0 1 3.41.94 3.32 3.32 0 0 1 1.22 2.8 3.28 3.28 0 0 1-1.22 2.71 5 5 0 0 1-3.36 1h-9.63v11.25h3.88v-7.76h4.91l5.46 7.76Z" fill="#015668"/></svg>